<mxfile host="app.diagrams.net" agent="Mozilla/5.0 (Windows NT 10.0; Win64; x64) AppleWebKit/537.36 (KHTML, like Gecko) Chrome/133.0.0.0 Safari/537.36" version="26.0.15">
  <diagram name="Page-1" id="hoq7XEA7D23hxx_5MP0c">
    <mxGraphModel dx="1050" dy="530" grid="1" gridSize="10" guides="1" tooltips="1" connect="1" arrows="1" fold="1" page="1" pageScale="1" pageWidth="827" pageHeight="1169" math="0" shadow="0">
      <root>
        <mxCell id="0" />
        <mxCell id="1" parent="0" />
        <mxCell id="iDwiXtFXAyb-sXymFkLv-1" value="City                         " style="swimlane;fontStyle=1;align=center;verticalAlign=top;childLayout=stackLayout;horizontal=1;startSize=26;horizontalStack=0;resizeParent=1;resizeParentMax=0;resizeLast=0;collapsible=1;marginBottom=0;whiteSpace=wrap;html=1;" parent="1" vertex="1">
          <mxGeometry x="90" y="10" width="130" height="130" as="geometry" />
        </mxCell>
        <mxCell id="iDwiXtFXAyb-sXymFkLv-2" value="- id: Long   &lt;div&gt;- &lt;span class=&quot;hljs-type&quot;&gt;name&lt;/span&gt;: String&amp;nbsp;&amp;nbsp;&lt;/div&gt;" style="text;strokeColor=none;fillColor=none;align=left;verticalAlign=top;spacingLeft=4;spacingRight=4;overflow=hidden;rotatable=0;points=[[0,0.5],[1,0.5]];portConstraint=eastwest;whiteSpace=wrap;html=1;" parent="iDwiXtFXAyb-sXymFkLv-1" vertex="1">
          <mxGeometry y="26" width="130" height="54" as="geometry" />
        </mxCell>
        <mxCell id="iDwiXtFXAyb-sXymFkLv-3" value="" style="line;strokeWidth=1;fillColor=none;align=left;verticalAlign=middle;spacingTop=-1;spacingLeft=3;spacingRight=3;rotatable=0;labelPosition=right;points=[];portConstraint=eastwest;strokeColor=inherit;" parent="iDwiXtFXAyb-sXymFkLv-1" vertex="1">
          <mxGeometry y="80" width="130" height="8" as="geometry" />
        </mxCell>
        <mxCell id="iDwiXtFXAyb-sXymFkLv-4" value="+ getId(): Long&lt;br&gt;+ getName(): String" style="text;strokeColor=none;fillColor=none;align=left;verticalAlign=top;spacingLeft=4;spacingRight=4;overflow=hidden;rotatable=0;points=[[0,0.5],[1,0.5]];portConstraint=eastwest;whiteSpace=wrap;html=1;" parent="iDwiXtFXAyb-sXymFkLv-1" vertex="1">
          <mxGeometry y="88" width="130" height="42" as="geometry" />
        </mxCell>
        <mxCell id="iDwiXtFXAyb-sXymFkLv-5" value="Hotel                         " style="swimlane;fontStyle=1;align=center;verticalAlign=top;childLayout=stackLayout;horizontal=1;startSize=26;horizontalStack=0;resizeParent=1;resizeParentMax=0;resizeLast=0;collapsible=1;marginBottom=0;whiteSpace=wrap;html=1;" parent="1" vertex="1">
          <mxGeometry x="360" y="50" width="180" height="280" as="geometry" />
        </mxCell>
        <mxCell id="iDwiXtFXAyb-sXymFkLv-6" value="- id: Long&lt;div&gt;- &lt;span class=&quot;hljs-type&quot;&gt;name&lt;/span&gt;: String&lt;/div&gt;&lt;div&gt;- address: String&lt;/div&gt;&lt;div&gt;- phone: String&lt;div&gt;- stars:&amp;nbsp;&lt;span class=&quot;hljs-type&quot;&gt;Integer&lt;/span&gt;&lt;div&gt;- pricePerNight:&amp;nbsp;&lt;span class=&quot;hljs-type&quot;&gt;Double&lt;/span&gt;&amp;nbsp;&lt;div&gt;- cityId: Long&amp;nbsp;&lt;/div&gt;&lt;/div&gt;&lt;/div&gt;&lt;/div&gt;&lt;div&gt;-&amp;nbsp;imageUrl: String&lt;/div&gt;" style="text;strokeColor=none;fillColor=none;align=left;verticalAlign=top;spacingLeft=4;spacingRight=4;overflow=hidden;rotatable=0;points=[[0,0.5],[1,0.5]];portConstraint=eastwest;whiteSpace=wrap;html=1;" parent="iDwiXtFXAyb-sXymFkLv-5" vertex="1">
          <mxGeometry y="26" width="180" height="124" as="geometry" />
        </mxCell>
        <mxCell id="iDwiXtFXAyb-sXymFkLv-7" value="" style="line;strokeWidth=1;fillColor=none;align=left;verticalAlign=middle;spacingTop=-1;spacingLeft=3;spacingRight=3;rotatable=0;labelPosition=right;points=[];portConstraint=eastwest;strokeColor=inherit;" parent="iDwiXtFXAyb-sXymFkLv-5" vertex="1">
          <mxGeometry y="150" width="180" height="8" as="geometry" />
        </mxCell>
        <mxCell id="iDwiXtFXAyb-sXymFkLv-8" value="+ getId(): Long&lt;div&gt;+ getName(): String&lt;/div&gt;&lt;div&gt;+ getAddress(): String&lt;/div&gt;&lt;div&gt;+ getPhone(): String&lt;/div&gt;&lt;div&gt;+ getStars(): &lt;span class=&quot;hljs-type&quot;&gt;Integer&lt;/span&gt;&lt;/div&gt;&lt;div&gt;+ getPricePerNight(): &lt;span class=&quot;hljs-type&quot;&gt;Double&lt;/span&gt;&lt;/div&gt;&lt;div&gt;&lt;span class=&quot;hljs-type&quot;&gt;+ getImageUrl(): String&lt;/span&gt;&lt;/div&gt;" style="text;strokeColor=none;fillColor=none;align=left;verticalAlign=top;spacingLeft=4;spacingRight=4;overflow=hidden;rotatable=0;points=[[0,0.5],[1,0.5]];portConstraint=eastwest;whiteSpace=wrap;html=1;" parent="iDwiXtFXAyb-sXymFkLv-5" vertex="1">
          <mxGeometry y="158" width="180" height="122" as="geometry" />
        </mxCell>
        <mxCell id="iDwiXtFXAyb-sXymFkLv-9" value="" style="endArrow=none;html=1;rounded=0;entryX=-0.002;entryY=0.271;entryDx=0;entryDy=0;entryPerimeter=0;" parent="1" target="iDwiXtFXAyb-sXymFkLv-6" edge="1">
          <mxGeometry width="50" height="50" relative="1" as="geometry">
            <mxPoint x="220" y="110" as="sourcePoint" />
            <mxPoint x="330" y="100" as="targetPoint" />
          </mxGeometry>
        </mxCell>
        <mxCell id="iDwiXtFXAyb-sXymFkLv-10" value="0...*" style="edgeLabel;html=1;align=center;verticalAlign=middle;resizable=0;points=[];" parent="iDwiXtFXAyb-sXymFkLv-9" vertex="1" connectable="0">
          <mxGeometry x="0.8382" y="1" relative="1" as="geometry">
            <mxPoint as="offset" />
          </mxGeometry>
        </mxCell>
        <mxCell id="iDwiXtFXAyb-sXymFkLv-11" value="1" style="edgeLabel;html=1;align=center;verticalAlign=middle;resizable=0;points=[];" parent="iDwiXtFXAyb-sXymFkLv-9" vertex="1" connectable="0">
          <mxGeometry x="-0.88" y="1" relative="1" as="geometry">
            <mxPoint as="offset" />
          </mxGeometry>
        </mxCell>
        <mxCell id="iDwiXtFXAyb-sXymFkLv-12" value="Room                         " style="swimlane;fontStyle=1;align=center;verticalAlign=top;childLayout=stackLayout;horizontal=1;startSize=26;horizontalStack=0;resizeParent=1;resizeParentMax=0;resizeLast=0;collapsible=1;marginBottom=0;whiteSpace=wrap;html=1;" parent="1" vertex="1">
          <mxGeometry x="360" y="390" width="180" height="230" as="geometry" />
        </mxCell>
        <mxCell id="iDwiXtFXAyb-sXymFkLv-13" value="- id: Long&lt;div&gt;-&amp;nbsp;roomNumber : String&lt;br&gt;&lt;div&gt;- hotelId: Long&lt;/div&gt;&lt;div&gt;- roomType: String&lt;/div&gt;&lt;div&gt;-&amp;nbsp;&lt;span style=&quot;background-color: transparent; color: light-dark(rgb(0, 0, 0), rgb(255, 255, 255));&quot;&gt;capacity&lt;/span&gt;&lt;span style=&quot;background-color: transparent; color: light-dark(rgb(0, 0, 0), rgb(255, 255, 255));&quot;&gt;:&amp;nbsp;&lt;/span&gt;&lt;span style=&quot;background-color: transparent;&quot;&gt;Integer&lt;/span&gt;&lt;/div&gt;&lt;div&gt;- pricePerNight: &lt;span class=&quot;hljs-type&quot;&gt;Double&lt;/span&gt;&lt;/div&gt;&lt;div&gt;- available: &lt;span class=&quot;hljs-type&quot;&gt;Boolean&lt;/span&gt;&lt;/div&gt;&lt;/div&gt;" style="text;strokeColor=none;fillColor=none;align=left;verticalAlign=top;spacingLeft=4;spacingRight=4;overflow=hidden;rotatable=0;points=[[0,0.5],[1,0.5]];portConstraint=eastwest;whiteSpace=wrap;html=1;" parent="iDwiXtFXAyb-sXymFkLv-12" vertex="1">
          <mxGeometry y="26" width="180" height="104" as="geometry" />
        </mxCell>
        <mxCell id="iDwiXtFXAyb-sXymFkLv-14" value="" style="line;strokeWidth=1;fillColor=none;align=left;verticalAlign=middle;spacingTop=-1;spacingLeft=3;spacingRight=3;rotatable=0;labelPosition=right;points=[];portConstraint=eastwest;strokeColor=inherit;" parent="iDwiXtFXAyb-sXymFkLv-12" vertex="1">
          <mxGeometry y="130" width="180" height="8" as="geometry" />
        </mxCell>
        <mxCell id="iDwiXtFXAyb-sXymFkLv-15" value="+ getId(): Long&lt;div&gt;+ getRoomNumber(): String&lt;br&gt;&lt;div&gt;+ getRoomType(): String&lt;/div&gt;&lt;div&gt;+ getPricePerNight(): &lt;span class=&quot;hljs-type&quot;&gt;Double&lt;/span&gt;&lt;/div&gt;&lt;div&gt;+ isAvailable(): &lt;span class=&quot;hljs-type&quot;&gt;Boolean&lt;/span&gt;&lt;/div&gt;&lt;/div&gt;" style="text;strokeColor=none;fillColor=none;align=left;verticalAlign=top;spacingLeft=4;spacingRight=4;overflow=hidden;rotatable=0;points=[[0,0.5],[1,0.5]];portConstraint=eastwest;whiteSpace=wrap;html=1;" parent="iDwiXtFXAyb-sXymFkLv-12" vertex="1">
          <mxGeometry y="138" width="180" height="92" as="geometry" />
        </mxCell>
        <mxCell id="iDwiXtFXAyb-sXymFkLv-16" value="" style="endArrow=none;html=1;rounded=0;entryX=0.5;entryY=0;entryDx=0;entryDy=0;exitX=0.498;exitY=1.015;exitDx=0;exitDy=0;exitPerimeter=0;" parent="1" source="iDwiXtFXAyb-sXymFkLv-8" target="iDwiXtFXAyb-sXymFkLv-12" edge="1">
          <mxGeometry width="50" height="50" relative="1" as="geometry">
            <mxPoint x="430" y="340" as="sourcePoint" />
            <mxPoint x="570" y="340" as="targetPoint" />
          </mxGeometry>
        </mxCell>
        <mxCell id="iDwiXtFXAyb-sXymFkLv-17" value="0...*" style="edgeLabel;html=1;align=center;verticalAlign=middle;resizable=0;points=[];" parent="iDwiXtFXAyb-sXymFkLv-16" vertex="1" connectable="0">
          <mxGeometry x="0.8382" y="1" relative="1" as="geometry">
            <mxPoint as="offset" />
          </mxGeometry>
        </mxCell>
        <mxCell id="iDwiXtFXAyb-sXymFkLv-18" value="1" style="edgeLabel;html=1;align=center;verticalAlign=middle;resizable=0;points=[];" parent="iDwiXtFXAyb-sXymFkLv-16" vertex="1" connectable="0">
          <mxGeometry x="-0.88" y="1" relative="1" as="geometry">
            <mxPoint as="offset" />
          </mxGeometry>
        </mxCell>
        <mxCell id="iDwiXtFXAyb-sXymFkLv-19" value="&lt;span class=&quot;hljs-keyword&quot;&gt;User&lt;/span&gt;" style="swimlane;fontStyle=1;align=center;verticalAlign=top;childLayout=stackLayout;horizontal=1;startSize=26;horizontalStack=0;resizeParent=1;resizeParentMax=0;resizeLast=0;collapsible=1;marginBottom=0;whiteSpace=wrap;html=1;" parent="1" vertex="1">
          <mxGeometry x="75" y="410" width="160" height="220" as="geometry" />
        </mxCell>
        <mxCell id="iDwiXtFXAyb-sXymFkLv-20" value="- id: Long&lt;br&gt;- firstN&lt;span class=&quot;hljs-type&quot;&gt;ame&lt;/span&gt;: String&lt;div&gt;- lastName: String&lt;br&gt;- email: String&lt;br&gt;- &lt;span class=&quot;hljs-keyword&quot;&gt;password&lt;/span&gt;: String&lt;br&gt;- &lt;span class=&quot;hljs-keyword&quot;&gt;role&lt;/span&gt;: String&lt;/div&gt;" style="text;strokeColor=none;fillColor=none;align=left;verticalAlign=top;spacingLeft=4;spacingRight=4;overflow=hidden;rotatable=0;points=[[0,0.5],[1,0.5]];portConstraint=eastwest;whiteSpace=wrap;html=1;" parent="iDwiXtFXAyb-sXymFkLv-19" vertex="1">
          <mxGeometry y="26" width="160" height="104" as="geometry" />
        </mxCell>
        <mxCell id="iDwiXtFXAyb-sXymFkLv-21" value="" style="line;strokeWidth=1;fillColor=none;align=left;verticalAlign=middle;spacingTop=-1;spacingLeft=3;spacingRight=3;rotatable=0;labelPosition=right;points=[];portConstraint=eastwest;strokeColor=inherit;" parent="iDwiXtFXAyb-sXymFkLv-19" vertex="1">
          <mxGeometry y="130" width="160" height="8" as="geometry" />
        </mxCell>
        <mxCell id="iDwiXtFXAyb-sXymFkLv-22" value="+ getId(): Long&lt;div&gt;+ getName(): String&lt;/div&gt;&lt;div&gt;+ getEmail(): String&lt;/div&gt;&lt;div&gt;+ getPassword(): String&lt;/div&gt;&lt;div&gt;+ getRole(): String   &lt;/div&gt;" style="text;strokeColor=none;fillColor=none;align=left;verticalAlign=top;spacingLeft=4;spacingRight=4;overflow=hidden;rotatable=0;points=[[0,0.5],[1,0.5]];portConstraint=eastwest;whiteSpace=wrap;html=1;" parent="iDwiXtFXAyb-sXymFkLv-19" vertex="1">
          <mxGeometry y="138" width="160" height="82" as="geometry" />
        </mxCell>
        <mxCell id="iDwiXtFXAyb-sXymFkLv-23" value="" style="endArrow=none;html=1;rounded=0;exitX=0.994;exitY=0.586;exitDx=0;exitDy=0;entryX=0;entryY=0.405;entryDx=0;entryDy=0;entryPerimeter=0;exitPerimeter=0;" parent="1" source="iDwiXtFXAyb-sXymFkLv-20" target="iDwiXtFXAyb-sXymFkLv-13" edge="1">
          <mxGeometry width="50" height="50" relative="1" as="geometry">
            <mxPoint x="270" y="490" as="sourcePoint" />
            <mxPoint x="320" y="440" as="targetPoint" />
          </mxGeometry>
        </mxCell>
        <mxCell id="iDwiXtFXAyb-sXymFkLv-24" value="1" style="edgeLabel;html=1;align=center;verticalAlign=middle;resizable=0;points=[];" parent="iDwiXtFXAyb-sXymFkLv-23" vertex="1" connectable="0">
          <mxGeometry x="-0.8037" y="-2" relative="1" as="geometry">
            <mxPoint as="offset" />
          </mxGeometry>
        </mxCell>
        <mxCell id="iDwiXtFXAyb-sXymFkLv-25" value="0...*" style="edgeLabel;html=1;align=center;verticalAlign=middle;resizable=0;points=[];" parent="iDwiXtFXAyb-sXymFkLv-23" vertex="1" connectable="0">
          <mxGeometry x="0.8449" relative="1" as="geometry">
            <mxPoint as="offset" />
          </mxGeometry>
        </mxCell>
        <mxCell id="iDwiXtFXAyb-sXymFkLv-26" value="Booking                        " style="swimlane;fontStyle=1;align=center;verticalAlign=top;childLayout=stackLayout;horizontal=1;startSize=26;horizontalStack=0;resizeParent=1;resizeParentMax=0;resizeLast=0;collapsible=1;marginBottom=0;whiteSpace=wrap;html=1;" parent="1" vertex="1">
          <mxGeometry x="75" y="150" width="160" height="210" as="geometry" />
        </mxCell>
        <mxCell id="iDwiXtFXAyb-sXymFkLv-27" value="- id: Long&amp;nbsp;&lt;div&gt;- userId: Long&lt;/div&gt;&lt;div&gt;- hotelId: Long&lt;/div&gt;&lt;div&gt;- checkInDate: &lt;span class=&quot;hljs-type&quot;&gt;Date&lt;/span&gt;&lt;/div&gt;&lt;div&gt;- checkOutDate: &lt;span class=&quot;hljs-type&quot;&gt;Date&lt;/span&gt;&lt;/div&gt;&lt;div&gt;- guests: &lt;span class=&quot;hljs-type&quot;&gt;Integer&lt;/span&gt;&lt;/div&gt;" style="text;strokeColor=none;fillColor=none;align=left;verticalAlign=top;spacingLeft=4;spacingRight=4;overflow=hidden;rotatable=0;points=[[0,0.5],[1,0.5]];portConstraint=eastwest;whiteSpace=wrap;html=1;" parent="iDwiXtFXAyb-sXymFkLv-26" vertex="1">
          <mxGeometry y="26" width="160" height="94" as="geometry" />
        </mxCell>
        <mxCell id="iDwiXtFXAyb-sXymFkLv-28" value="" style="line;strokeWidth=1;fillColor=none;align=left;verticalAlign=middle;spacingTop=-1;spacingLeft=3;spacingRight=3;rotatable=0;labelPosition=right;points=[];portConstraint=eastwest;strokeColor=inherit;" parent="iDwiXtFXAyb-sXymFkLv-26" vertex="1">
          <mxGeometry y="120" width="160" height="8" as="geometry" />
        </mxCell>
        <mxCell id="iDwiXtFXAyb-sXymFkLv-29" value="+ getId(): Long&amp;nbsp;&lt;div&gt;+ getCheckInDate(): &lt;span class=&quot;hljs-type&quot;&gt;Date&lt;/span&gt;&lt;/div&gt;&lt;div&gt;+ getCheckOutDate(): &lt;span class=&quot;hljs-type&quot;&gt;Date&lt;/span&gt;&amp;nbsp;&lt;/div&gt;&lt;div&gt;+ getGuests(): &lt;span class=&quot;hljs-type&quot;&gt;Integer&lt;/span&gt;&lt;/div&gt;" style="text;strokeColor=none;fillColor=none;align=left;verticalAlign=top;spacingLeft=4;spacingRight=4;overflow=hidden;rotatable=0;points=[[0,0.5],[1,0.5]];portConstraint=eastwest;whiteSpace=wrap;html=1;" parent="iDwiXtFXAyb-sXymFkLv-26" vertex="1">
          <mxGeometry y="128" width="160" height="82" as="geometry" />
        </mxCell>
        <mxCell id="iDwiXtFXAyb-sXymFkLv-30" value="" style="endArrow=none;html=1;rounded=0;entryX=0.47;entryY=1.018;entryDx=0;entryDy=0;entryPerimeter=0;" parent="1" target="iDwiXtFXAyb-sXymFkLv-29" edge="1">
          <mxGeometry width="50" height="50" relative="1" as="geometry">
            <mxPoint x="150" y="410" as="sourcePoint" />
            <mxPoint x="200" y="360" as="targetPoint" />
          </mxGeometry>
        </mxCell>
        <mxCell id="iDwiXtFXAyb-sXymFkLv-31" value="1" style="edgeLabel;html=1;align=center;verticalAlign=middle;resizable=0;points=[];" parent="iDwiXtFXAyb-sXymFkLv-30" vertex="1" connectable="0">
          <mxGeometry x="-0.6498" y="1" relative="1" as="geometry">
            <mxPoint as="offset" />
          </mxGeometry>
        </mxCell>
        <mxCell id="iDwiXtFXAyb-sXymFkLv-32" value="0...*" style="edgeLabel;html=1;align=center;verticalAlign=middle;resizable=0;points=[];" parent="iDwiXtFXAyb-sXymFkLv-30" vertex="1" connectable="0">
          <mxGeometry x="0.6125" y="1" relative="1" as="geometry">
            <mxPoint as="offset" />
          </mxGeometry>
        </mxCell>
        <mxCell id="iDwiXtFXAyb-sXymFkLv-33" value="" style="endArrow=none;html=1;rounded=0;entryX=1.005;entryY=0.59;entryDx=0;entryDy=0;entryPerimeter=0;exitX=0.009;exitY=0.977;exitDx=0;exitDy=0;exitPerimeter=0;" parent="1" source="iDwiXtFXAyb-sXymFkLv-6" target="iDwiXtFXAyb-sXymFkLv-27" edge="1">
          <mxGeometry width="50" height="50" relative="1" as="geometry">
            <mxPoint x="235" y="240" as="sourcePoint" />
            <mxPoint x="375" y="240" as="targetPoint" />
          </mxGeometry>
        </mxCell>
        <mxCell id="iDwiXtFXAyb-sXymFkLv-34" value="0...*" style="edgeLabel;html=1;align=center;verticalAlign=middle;resizable=0;points=[];" parent="iDwiXtFXAyb-sXymFkLv-33" vertex="1" connectable="0">
          <mxGeometry x="0.8382" y="1" relative="1" as="geometry">
            <mxPoint as="offset" />
          </mxGeometry>
        </mxCell>
        <mxCell id="iDwiXtFXAyb-sXymFkLv-35" value="1" style="edgeLabel;html=1;align=center;verticalAlign=middle;resizable=0;points=[];" parent="iDwiXtFXAyb-sXymFkLv-33" vertex="1" connectable="0">
          <mxGeometry x="-0.88" y="1" relative="1" as="geometry">
            <mxPoint as="offset" />
          </mxGeometry>
        </mxCell>
      </root>
    </mxGraphModel>
  </diagram>
</mxfile>
